# xmcd CD database file
#
# Track frame offsets:
#	150
#	19125
#	35775
#	52275
#	69600
#	87600
#	104325
#	120825
#	134625
#	152697
#	164302
#	184817
#	202197
#	216935
#	234807
#	253307
#	271495
#	287202
#
# Disc length: 4229 seconds
#
# Revision: 0
# Processed by: cddbd v1.5PL3 Copyright (c) Steve Scherf et al.
# Submitted via: CDex 1.50Beta7
#
DISCID=1c108312
DTITLE=Paul Young - Reflections
DYEAR=1995
DGENRE=R&B
TTITLE0=Grazing In The Grass
TTITLE1=Until You Come Back To Me
TTITLE2=That's How Heartaches Are Made
TTITLE3=Love Won't Let Me Wait
TTITLE4=Just A Little Misunderstanding
TTITLE5=Hey Girl Don't Bother Me
TTITLE6=Baby Don't Change Your Mind
TTITLE7=Reflections
TTITLE8=Love Is Like An Itching In My Heart
TTITLE9=Ain't No Sunshine
TTITLE10=Your Precious Love
TTITLE11=More Love
TTITLE12=Take Me In Your Arms Love Me
TTITLE13=Love Makes The World Go Around
TTITLE14=Reach Out Want My Love
TTITLE15=If You Don't Want My Love
TTITLE16=Don't Let Me Lose This Dream
TTITLE17=That's How Heartaches Are Made (remix)
EXTD=YEAR: 1995
EXTT0=
EXTT1=
EXTT2=
EXTT3=
EXTT4=
EXTT5=
EXTT6=
EXTT7=
EXTT8=
EXTT9=
EXTT10=
EXTT11=
EXTT12=
EXTT13=
EXTT14=
EXTT15=
EXTT16=
EXTT17=
PLAYORDER=
